<svg width="115" height="16" viewBox="0 0 115 16" fill="none" xmlns="http://www.w3.org/2000/svg">
<path d="M2.096 12H0.752L2.528 0.799999H11.664L9.888 12H8.544L10.112 2.08H3.664L2.096 12ZM20.6099 8.24C20.4179 9.46667 19.8632 10.432 18.9459 11.136C18.0392 11.84 17.0312 12.192 15.9219 12.192C14.8339 12.192 13.9325 11.824 13.2179 11.088C12.5139 10.3413 12.2579 9.33867 12.4499 8.08C12.6525 6.85333 13.2072 5.888 14.1139 5.184C15.0312 4.48 16.0392 4.128 17.1379 4.128C18.2365 4.128 19.1379 4.50133 19.8419 5.248C20.5565 5.984 20.8125 6.98133 20.6099 8.24ZM13.6979 8.24C13.5699 9.08267 13.7245 9.74933 14.1619 10.24C14.6099 10.7307 15.2285 10.976 16.0179 10.976C16.8392 10.976 17.5645 10.7147 18.1939 10.192C18.8339 9.66933 19.2232 8.96533 19.3619 8.08C19.4899 7.23733 19.3299 6.57067 18.8819 6.08C18.4445 5.58933 17.8312 5.344 17.0419 5.344C16.2205 5.344 15.4899 5.60533 14.8499 6.128C14.2205 6.65067 13.8365 7.35467 13.6979 8.24ZM21.7799 14.08H20.5319L21.0439 10.848H22.1159C23.2892 9.20533 24.0785 7.02933 24.4839 4.32H30.1319L29.1079 10.848H30.2279L29.7159 14.08H28.4679L28.8039 12H22.1159L21.7799 14.08ZM25.4919 5.504C25.0972 7.616 24.4252 9.39733 23.4759 10.848H27.8279L28.6759 5.504H25.4919ZM33.8889 5.68C34.7849 4.64533 35.8835 4.128 37.1849 4.128C38.2942 4.128 39.1582 4.52267 39.7769 5.312C40.3955 6.09067 40.6142 7.06667 40.4329 8.24C40.2622 9.37067 39.7555 10.3147 38.9129 11.072C38.0702 11.8187 37.1102 12.192 36.0329 12.192C34.7315 12.192 33.7982 11.68 33.2329 10.656L32.4649 15.52H31.1849L32.9609 4.32H34.1129L33.8889 5.68ZM39.1849 8.16C39.3129 7.31733 39.1635 6.63467 38.7369 6.112C38.3102 5.57867 37.7235 5.312 36.9769 5.312C36.3049 5.312 35.6862 5.49867 35.1209 5.872C34.5555 6.23467 34.1075 6.69333 33.7769 7.248L33.4729 9.168C33.6222 9.69067 33.9102 10.128 34.3369 10.48C34.7742 10.832 35.3129 11.008 35.9529 11.008C36.7422 11.008 37.4409 10.752 38.0489 10.24C38.6675 9.728 39.0462 9.03467 39.1849 8.16ZM49.9068 8.24C49.7148 9.46667 49.1601 10.432 48.2428 11.136C47.3361 11.84 46.3281 12.192 45.2188 12.192C44.1308 12.192 43.2294 11.824 42.5148 11.088C41.8108 10.3413 41.5548 9.33867 41.7467 8.08C41.9494 6.85333 42.5041 5.888 43.4108 5.184C44.3281 4.48 45.3361 4.128 46.4348 4.128C47.5334 4.128 48.4348 4.50133 49.1388 5.248C49.8534 5.984 50.1094 6.98133 49.9068 8.24ZM42.9948 8.24C42.8668 9.08267 43.0214 9.74933 43.4588 10.24C43.9068 10.7307 44.5254 10.976 45.3148 10.976C46.1361 10.976 46.8614 10.7147 47.4908 10.192C48.1308 9.66933 48.5201 8.96533 48.6588 8.08C48.7868 7.23733 48.6268 6.57067 48.1788 6.08C47.7414 5.58933 47.1281 5.344 46.3388 5.344C45.5174 5.344 44.7868 5.60533 44.1468 6.128C43.5174 6.65067 43.1334 7.35467 42.9948 8.24ZM59.1995 8.464C59.0182 9.62667 58.5382 10.5387 57.7595 11.2C56.9808 11.8613 56.0315 12.192 54.9115 12.192C53.6848 12.192 52.7408 11.7973 52.0795 11.008C51.4182 10.208 51.2048 9.07733 51.4395 7.616C51.8235 5.14133 52.8902 3.42933 54.6395 2.48C55.3008 2.11733 55.9835 1.84 56.6875 1.648C57.3915 1.44533 57.9942 1.28 58.4955 1.152C59.0075 1.01333 59.4235 0.821333 59.7435 0.575999L59.5195 1.984C59.2102 2.176 58.5862 2.384 57.6475 2.608C56.7195 2.82133 55.9248 3.10933 55.2635 3.472C54.2822 4.016 53.5195 4.88533 52.9755 6.08C53.3168 5.64267 53.7648 5.296 54.3195 5.04C54.8848 4.77333 55.4448 4.64 55.9995 4.64C56.9595 4.64 57.7755 5.00267 58.4475 5.728C59.1195 6.45333 59.3702 7.36533 59.1995 8.464ZM52.5755 8.336C52.4582 9.12533 52.6182 9.76533 53.0555 10.256C53.4928 10.736 54.1222 10.976 54.9435 10.976C55.7755 10.976 56.4528 10.7307 56.9755 10.24C57.4982 9.74933 57.8182 9.11467 57.9355 8.336C58.0422 7.632 57.8768 7.04 57.4395 6.56C57.0128 6.06933 56.4422 5.824 55.7275 5.824C54.9168 5.824 54.2128 6.064 53.6155 6.544C53.0288 7.024 52.6822 7.62133 52.5755 8.336ZM61.7593 12H60.4793L61.6953 4.32H62.9753L62.4633 7.568H66.9113L67.4233 4.32H68.7033L67.4873 12H66.2073L66.7193 8.752H62.2713L61.7593 12ZM69.9186 8.112C70.1106 6.864 70.6386 5.888 71.5026 5.184C72.3773 4.48 73.3213 4.128 74.3346 4.128C75.0386 4.128 75.6413 4.26667 76.1426 4.544C76.644 4.82133 76.996 5.184 77.1986 5.632C77.4013 6.06933 77.5133 6.56533 77.5346 7.12C77.5666 7.67467 77.4653 8.224 77.2306 8.768H71.1186C71.076 9.52533 71.3266 10.0907 71.8706 10.464C72.4253 10.8267 73.092 11.008 73.8706 11.008C74.8733 11.008 75.7853 10.7893 76.6066 10.352L76.3986 11.648C75.62 12.0107 74.7026 12.192 73.6466 12.192C73.1346 12.192 72.6386 12.1067 72.1586 11.936C71.6786 11.7653 71.2466 11.52 70.8626 11.2C70.4893 10.88 70.212 10.4533 70.0306 9.92C69.8493 9.376 69.812 8.77333 69.9186 8.112ZM76.2866 7.648C76.372 7.424 76.3933 7.17867 76.3506 6.912C76.308 6.64533 76.2333 6.39467 76.1266 6.16C76.02 5.91467 75.812 5.712 75.5026 5.552C75.1933 5.392 74.8093 5.312 74.3506 5.312C73.636 5.312 72.9853 5.52533 72.3986 5.952C71.8226 6.368 71.4546 6.93333 71.2946 7.648H76.2866ZM78.653 8.112C78.845 6.864 79.373 5.888 80.237 5.184C81.1117 4.48 82.0557 4.128 83.069 4.128C83.773 4.128 84.3757 4.26667 84.877 4.544C85.3783 4.82133 85.7303 5.184 85.933 5.632C86.1357 6.06933 86.2477 6.56533 86.269 7.12C86.301 7.67467 86.1997 8.224 85.965 8.768H79.853C79.8103 9.52533 80.061 10.0907 80.605 10.464C81.1597 10.8267 81.8263 11.008 82.605 11.008C83.6077 11.008 84.5197 10.7893 85.341 10.352L85.133 11.648C84.3543 12.0107 83.437 12.192 82.381 12.192C81.869 12.192 81.373 12.1067 80.893 11.936C80.413 11.7653 79.981 11.52 79.597 11.2C79.2237 10.88 78.9463 10.4533 78.765 9.92C78.5837 9.376 78.5463 8.77333 78.653 8.112ZM85.021 7.648C85.1063 7.424 85.1277 7.17867 85.085 6.912C85.0423 6.64533 84.9677 6.39467 84.861 6.16C84.7543 5.91467 84.5463 5.712 84.237 5.552C83.9277 5.392 83.5437 5.312 83.085 5.312C82.3703 5.312 81.7197 5.52533 81.133 5.952C80.557 6.368 80.189 6.93333 80.029 7.648H85.021Z" fill="#121723"/>
<path d="M111.354 8.35355C111.549 8.15829 111.549 7.84171 111.354 7.64645L108.172 4.46447C107.976 4.2692 107.66 4.2692 107.464 4.46447C107.269 4.65973 107.269 4.97631 107.464 5.17157L110.293 8L107.464 10.8284C107.269 11.0237 107.269 11.3403 107.464 11.5355C107.66 11.7308 107.976 11.7308 108.172 11.5355L111.354 8.35355ZM91 8.5H111V7.5H91V8.5Z" fill="#121723"/>
</svg>
